<?xml version="1.0" encoding="utf-8"?>
<!-- Generator: Adobe Illustrator 22.0.1, SVG Export Plug-In . SVG Version: 6.00 Build 0)  -->
<svg version="1.1" id="Layer_1" xmlns="http://www.w3.org/2000/svg" xmlns:xlink="http://www.w3.org/1999/xlink" x="0px" y="0px"
	 viewBox="0 0 105.3 60.8" style="enable-background:new 0 0 105.3 60.8;" xml:space="preserve">
<style type="text/css">
	.st0{fill:#FFFFFF;}
	.st1{fill:#7DC240;}
</style>
<path class="st0" d="M94.3,60.8H11c-6.1,0-11-5-11-11V11C0,4.9,4.9,0,11,0h83.3c6.1,0,11,4.9,11,11v38.8
	C105.3,55.8,100.3,60.8,94.3,60.8z"/>
<g id="Lockup">
	<g id="eats">
		<path class="st1" d="M88.3,34.6l-1.3-0.3c-3.7-1-5.4-1.5-5.4-2.9c0-1.5,1.7-2.3,3.9-2.3c2.7,0,4.4,1,5.4,3.1
			c0.2,0.4,0.5,0.5,0.9,0.3l4-1.5c0.4-0.2,0.5-0.5,0.3-0.9c-1.6-4-5.3-6.1-10.3-6.1c-6.2,0-9.9,3.1-9.9,7.5c0,4,2.9,5.8,8.6,7.3
			l1.3,0.3c3.5,0.9,5.4,1.4,5.4,3c0,1.8-2,2.6-4.6,2.6c-3.2,0-5.4-1.4-6.5-4.1c-0.1-0.4-0.5-0.5-0.9-0.3l-3.6,1.7
			c-0.3,0.2-0.5,0.5-0.4,0.9c2,4.9,5.5,6.8,11.2,6.8c6.2,0,10.4-2.9,10.4-7.6C96.8,37.7,93.8,36,88.3,34.6L88.3,34.6z M22.8,24.1
			c-7,0-12.5,5.2-12.5,12.7c0,8,5.4,13.1,12.5,13.1c4.6,0,8.8-1.5,11.1-6c0.2-0.4,0-0.7-0.3-0.9l-3.9-1.8c-0.4-0.2-0.7,0-0.9,0.3
			c-1,2.1-3.2,3-5.9,3c-2.3,0-4.7-1.1-5.9-3.9c-0.4-1.1,0-1.8,1.2-1.8h15.9c0.4,0,0.7-0.3,0.7-0.7v-0.8
			C34.8,29.2,30.2,24.1,22.8,24.1z M16.6,34.4c0.8-3.7,3.6-5.1,6.3-5.1c3.5,0,5.3,1.7,5.8,5.1H16.6z M58.4,41.8v-8
			c0-6.7-4-9.7-10.5-9.7c-5.8,0-9.6,2.6-11,6.2c-0.1,0.4,0,0.8,0.4,0.9l4,1.8c0.4,0.2,0.7,0,0.9-0.3c1.2-2.5,2.9-3.3,5.7-3.3
			c2.5,0,4.4,1.1,4.4,2.7c0,0.8-0.3,1.3-1.1,1.6c-1.1,0.5-3.3,0.8-6.7,1.6c-4.9,1.2-8.2,2.6-8.2,7.1c0,5,4.1,7.5,9,7.5
			c3.4,0,6.4-1.3,7.7-3.3h0c0.2,0.8,0.5,1.7,0.9,2.4c0.1,0.3,0.4,0.4,0.8,0.4h5c0.5,0,0.8-0.3,0.5-0.8C59,46.9,58.4,45.1,58.4,41.8z
			 M52.4,40.8c0,2.4-3.3,4-6.4,4c-2.3,0-3.9-1-3.9-2.6c0-1.9,2.3-2.5,4.3-2.9l6-1.3V40.8z"/>
		<path class="st1" d="M73.6,43.8c-0.2-0.4-0.5-0.5-0.9-0.3c-1.1,0.5-2.1,0.7-2.7,0.7c-1.6,0-2.7-1-2.7-3v-9.4c0-1,0.7-1.7,1.7-1.7
			h4.7c0.4,0,0.7-0.3,0.7-0.7v-3.9c0-0.4-0.3-0.7-0.7-0.7h-6.4v-5.3c0-0.4-0.3-0.7-0.7-0.7h-4.6c-0.4,0-0.7,0.3-0.7,0.7v22.3
			c0,5.3,3.1,7.9,8,7.9c2,0,3.8-0.5,5.7-1.3c0.4-0.1,0.5-0.5,0.3-0.9L73.6,43.8z"/>
	</g>
	<g id="UBER">
		<path d="M16.7,19.6c2.6,0,4.3-1,4.3-3.8v-5.3h-1.7c-0.1,0-0.2,0.1-0.2,0.2v5c0,1.7-0.7,2.4-2.5,2.4c-1.7,0-2.5-0.7-2.5-2.4v-5.3
			h-1.6c-0.1,0-0.2,0.1-0.2,0.2v5.1C12.3,18.7,14.1,19.6,16.7,19.6z M37.1,19.5h6.3c0.1,0,0.2,0,0.2-0.1l0.5-1.2
			c0-0.1,0-0.1-0.1-0.1h-5.7v-1.6c0-0.5,0.3-0.8,1.1-0.8h2.5c0.1,0,0.2,0,0.2-0.1l0.5-1.2c0-0.1,0-0.1-0.1-0.1h-4.2V12h5.1
			c0.1,0,0.2,0,0.2-0.1l0.5-1.2c0,0,0-0.1,0-0.1h-6.7c-0.6,0-0.9,0.2-0.9,0.6v7.8C36.4,19.3,36.6,19.5,37.1,19.5z M25.3,19.5H30
			c1.8,0,3-0.7,3-2.5c0-1.1-0.4-2-1.4-2.2c0.7-0.4,1-1.1,1-2c0-2-1.6-2.3-3.3-2.3h-3.8c-0.6,0-0.9,0.2-0.9,0.6v7.8
			C24.6,19.3,24.8,19.5,25.3,19.5z M26.5,12h2.9c1,0,1.3,0.4,1.3,1.2s-0.3,1.2-1.3,1.2h-2.9V12z M26.5,16.4c0-0.5,0.3-0.8,1.1-0.8
			h2.2c1.1,0,1.3,0.4,1.3,1.2S30.8,18,29.7,18h-3.3V16.4z M47.5,19.5h1.6v-2.6c0-0.5,0.3-0.8,1.1-0.8h1.6l1.8,3.2
			c0,0.1,0.1,0.1,0.2,0.1h1.7c0.1,0,0.1-0.1,0.1-0.1l-2-3.4c1-0.2,1.8-0.9,1.8-2.6c0-2.2-1.3-2.7-3.6-2.7h-3.8
			c-0.6,0-0.9,0.2-0.9,0.6v8C47.3,19.4,47.4,19.5,47.5,19.5z M49.2,12h3.1c1.2,0,1.4,0.4,1.4,1.3c0,0.9-0.2,1.3-1.4,1.3h-3.1V12z"/>
	</g>
</g>
</svg>
