<?xml version="1.0" encoding="utf-8"?>
<!-- Generator: Adobe Illustrator 22.0.1, SVG Export Plug-In . SVG Version: 6.00 Build 0)  -->
<svg version="1.1" id="Layer_1" xmlns="http://www.w3.org/2000/svg" xmlns:xlink="http://www.w3.org/1999/xlink" x="0px" y="0px"
	 viewBox="0 0 64.7 60.8" style="enable-background:new 0 0 64.7 60.8;" xml:space="preserve">
<style type="text/css">
	.st0{fill:#FFFFFF;}
	.st1{clip-path:url(#SVGID_2_);}
	.st2{fill:#24564E;}
	.st3{clip-path:url(#SVGID_4_);}
	.st4{clip-path:url(#SVGID_6_);}
	.st5{fill:#49B6A8;}
	.st6{clip-path:url(#SVGID_8_);}
	.st7{clip-path:url(#SVGID_10_);}
	.st8{fill:#F9FBFB;}
	.st9{clip-path:url(#SVGID_12_);}
	.st10{clip-path:url(#SVGID_14_);}
	.st11{fill:#F7F7F7;}
	.st12{clip-path:url(#SVGID_16_);}
	.st13{clip-path:url(#SVGID_18_);}
	.st14{fill:#E9F4F3;}
	.st15{clip-path:url(#SVGID_20_);}
	.st16{clip-path:url(#SVGID_22_);}
	.st17{clip-path:url(#SVGID_24_);}
	.st18{clip-path:url(#SVGID_26_);}
	.st19{clip-path:url(#SVGID_28_);}
	.st20{clip-path:url(#SVGID_30_);}
	.st21{clip-path:url(#SVGID_32_);}
</style>
<path class="st0" d="M53.7,60.8H11c-6.1,0-11-5-11-11V11C0,4.9,4.9,0,11,0h42.7c6.1,0,11,4.9,11,11v38.8
	C64.7,55.8,59.8,60.8,53.7,60.8z"/>
<g>
	<g>
		<defs>
			<path id="SVGID_1_" d="M31.9,50.5c10.9,0,19.6-8.8,19.6-19.6s-8.8-19.7-19.6-19.7S12.3,20,12.3,30.8S21.1,50.5,31.9,50.5z
				 M31.9,55C18.6,55,7.8,44.2,7.8,30.8S18.6,6.6,31.9,6.6s24.2,10.8,24.2,24.2S45.3,55,31.9,55z"/>
		</defs>
		<clipPath id="SVGID_2_">
			<use xlink:href="#SVGID_1_"  style="overflow:visible;"/>
		</clipPath>
		<g class="st1">
			<path class="st2" d="M7.4,6.3h49v49h-49V6.3z"/>
		</g>
	</g>
	<g>
		<defs>
			<path id="SVGID_3_" d="M31.9,50.5c10.9,0,19.6-8.8,19.6-19.6s-8.8-19.7-19.6-19.7S12.3,20,12.3,30.8S21.1,50.5,31.9,50.5z
				 M31.9,51.8C20.4,51.8,11,42.4,11,30.8S20.4,9.9,31.9,9.9s20.9,9.4,20.9,20.9S43.5,51.8,31.9,51.8z"/>
		</defs>
		<clipPath id="SVGID_4_">
			<use xlink:href="#SVGID_3_"  style="overflow:visible;"/>
		</clipPath>
		<g class="st3">
			<path class="st0" d="M10.7,9.5h42.5v42.5H10.7V9.5z"/>
		</g>
	</g>
	<g>
		<defs>
			<path id="SVGID_5_" d="M31.9,50.5c10.9,0,19.6-8.8,19.6-19.6s-8.8-19.7-19.6-19.7S12.3,20,12.3,30.8S21.1,50.5,31.9,50.5z"/>
		</defs>
		<clipPath id="SVGID_6_">
			<use xlink:href="#SVGID_5_"  style="overflow:visible;"/>
		</clipPath>
		<g class="st4">
			<path class="st5" d="M12,10.8h39.9v39.9H12V10.8z"/>
		</g>
	</g>
	<g>
		<defs>
			<path id="SVGID_7_" d="M27.8,21v-4.1h-1.4v-1h3.9v1H29V21H27.8z M31.8,21.1c-1,0-1.9-0.7-1.9-2c0-1.3,0.9-2,1.9-2s1.9,0.7,1.9,2
				C33.7,20.3,32.8,21.1,31.8,21.1z M31.8,20.1c0.5,0,0.7-0.4,0.7-1.1c0-0.7-0.2-1.1-0.7-1.1c-0.5,0-0.7,0.4-0.7,1.1
				C31.1,19.7,31.3,20.1,31.8,20.1z M35.8,21.1c-1,0-1.9-0.7-1.9-2c0-1.3,0.9-2,1.9-2s1.9,0.7,1.9,2C37.7,20.3,36.8,21.1,35.8,21.1z
				 M35.8,20.1c0.5,0,0.7-0.4,0.7-1.1c0-0.7-0.2-1.1-0.7-1.1s-0.7,0.4-0.7,1.1C35.1,19.7,35.4,20.1,35.8,20.1L35.8,20.1z"/>
		</defs>
		<clipPath id="SVGID_8_">
			<use xlink:href="#SVGID_7_"  style="overflow:visible;"/>
		</clipPath>
		<g class="st6">
			<path class="st0" d="M26.1,15.6H38v5.8H26.1V15.6z"/>
		</g>
	</g>
	<g>
		<defs>
			<path id="SVGID_9_" d="M29.9,33.4c0.5-0.7,0.8-1.3,0.8-2.1c0-0.2,0-0.4-0.3-0.5c-0.2-0.1-0.4,0-0.5,0.2c-0.1,0.1-0.2,0.2-0.2,0.3
				C29.3,32,29.5,32.7,29.9,33.4 M35.5,31.4c0-0.2,0-0.4-0.3-0.5c-0.3-0.1-0.4,0.1-0.6,0.3c0,0-0.1,0.1-0.1,0.2
				c-0.4,0.7-0.2,1.3,0.1,1.9c0.1,0.1,0.1,0.1,0.2,0C35.2,32.7,35.5,32.1,35.5,31.4 M33.6,31.9c-0.5,0.7-0.8,1.4-0.8,2.3
				c0,0.5,0.3,0.6,0.7,0.4c0.3-0.2,0.6-0.4,0.8-0.7c0.1-0.1,0.1-0.2,0-0.3c-0.4-0.4-0.6-0.9-0.6-1.5C33.7,32.1,33.7,32,33.6,31.9
				 M28.8,31.9c-0.2,0-0.2,0.2-0.3,0.3c-0.3,0.5-0.5,1-0.6,1.5c-0.1,0.2-0.1,0.4,0,0.6c0.1,0.3,0.3,0.5,0.6,0.4
				c0.2-0.1,0.4-0.2,0.6-0.4c0.4-0.4,0.4-0.4,0.1-0.9c-0.1-0.1-0.1-0.2-0.2-0.4C28.9,32.7,28.8,32.3,28.8,31.9 M36.5,33.9
				c-0.5,0.2-1,0.3-1.5,0.2c-0.1,0-0.2,0.1-0.3,0.2c-0.3,0.4-0.7,0.7-1.1,0.9c-0.2,0.1-0.5,0.2-0.7,0.2c-0.8,0-1.1-0.3-1.2-1.1
				c0-0.1,0-0.3,0-0.5c-0.5,0.4-1,0.4-1.6,0.3c-0.1,0-0.2,0.1-0.3,0.2c-0.3,0.3-0.6,0.6-0.9,0.8c-0.3,0.2-0.6,0.3-0.9,0.3
				c-0.8,0.1-1.2-0.3-1.2-1.1c0-0.9,0.3-1.6,0.8-2.3c0.3-0.3,0.6-0.5,1-0.3c0.2,0.1,0.2-0.1,0.2-0.2c0.1-0.5,0.4-1,1-1.1
				c0.9-0.2,1.5,0.4,1.4,1.3c-0.1,0.6-0.4,1.2-0.8,1.8c-0.2,0.2-0.1,0.3,0.2,0.3c0.5,0.1,1.1-0.3,1.3-0.8c0.2-0.4,0.4-0.8,0.7-1.1
				c0.2-0.2,0.5-0.3,0.8-0.2c0.2,0.1,0.2,0,0.2-0.2c0.1-0.5,0.3-0.9,0.9-1.1c0.4-0.1,0.9-0.2,1.2,0.2c0.4,0.3,0.4,0.8,0.3,1.3
				c-0.1,0.6-0.4,1.1-0.7,1.6c-0.1,0.2-0.1,0.3,0.1,0.3c0.5,0.1,1.1-0.3,1.3-0.7c0.5-1.1,1.2-2,2.3-2.6c0.4-0.2,0.9-0.3,1.3-0.3
				c0.2,0,0.3,0.1,0.4,0.2c0.1,0.1,0.1,0.3,0,0.4c-0.1,0.1-0.2,0-0.3,0c-0.4-0.1-0.7,0-1,0.2c-1.1,0.7-1.7,1.7-1.9,2.9
				c-0.1,0.6,0.3,0.8,0.8,0.5c0.7-0.4,1.2-1,1.6-1.7c0.6-1,1-2.1,1.4-3.2c0.5-1.1,0.9-2.2,1.5-3.2c0.1-0.2,0.3-0.5,0.5-0.7
				c0.2-0.1,0.3-0.2,0.5-0.1c0.2,0.1,0.2,0.3,0.1,0.5c-0.2,0.7-0.6,1.3-0.9,2c-0.6,1.3-1.3,2.7-1.7,4.1c-0.2,0.6-0.3,1.2-0.3,1.9
				c0,0.5,0.2,0.6,0.7,0.4c0.7-0.3,1.1-0.9,1.5-1.6c0.1-0.1,0.1-0.3,0.3-0.1c0.1,0.1,0,0.1,0,0.2c-0.4,0.9-0.9,1.6-1.7,2.1
				c0,0-0.1,0-0.1,0.1c-0.5,0.2-0.9,0.3-1.4,0c-0.4-0.3-0.4-0.8-0.4-1.3c0-0.1,0-0.3,0-0.4c-0.1,0.1-0.2,0.3-0.4,0.4
				c-0.5,0.5-1,1.1-1.7,1.4c-0.8,0.3-1.5-0.1-1.6-0.9C36.5,34.2,36.5,34.1,36.5,33.9L36.5,33.9L36.5,33.9"/>
		</defs>
		<clipPath id="SVGID_10_">
			<use xlink:href="#SVGID_9_"  style="overflow:visible;"/>
		</clipPath>
		<g class="st7">
			<path class="st8" d="M26.5,25.2h18v10.5h-18V25.2z"/>
		</g>
	</g>
	<g>
		<defs>
			<path id="SVGID_11_" d="M24.8,34.8c-0.4,0.4-0.7,0.8-1.2,1c-1.6,0.8-3.3,0-3.8-1.8c-0.3-1-0.2-2,0.1-3c0.6-1.9,1.6-3.6,3.3-4.8
				c0.6-0.4,1.2-0.7,2-0.7c1,0,1.6,0.6,1.6,1.6c0,0.6-0.2,1.1-0.6,1.6c-0.3,0.4-0.8,0.4-1,0.1c-0.1-0.1-0.1-0.2,0-0.4
				c0.4-0.4,0.7-0.9,0.8-1.4c0.2-0.6-0.2-1-0.8-0.9c-0.5,0.1-1,0.3-1.4,0.7c-1.6,1.5-2.5,3.4-2.8,5.6c-0.1,0.6,0,1.1,0.1,1.7
				c0.1,0.2,0.1,0.4,0.2,0.5c0.6,1,1.7,1.1,2.5,0.3c0.8-0.8,1.2-1.9,1.4-3c0-0.2-0.1-0.2-0.2-0.3c-0.6-0.1-1.2-0.1-1.8-0.1
				c-0.2,0-0.2-0.1-0.2-0.2c0.1-0.4,0.5-0.6,0.9-0.6c0.4,0,0.8,0.1,1.2,0.2c0.3,0.1,0.6,0.2,1,0.3c0.3,0.1,0.3,0.2,0.2,0.4
				c-0.3,0.8-0.6,1.7-0.7,2.5c-0.1,0.6,0,1.1,0,1.7c0,0.3-0.1,0.3-0.3,0.2c-0.4-0.1-0.5-0.4-0.6-0.8C24.8,35.2,24.8,35,24.8,34.8"/>
		</defs>
		<clipPath id="SVGID_12_">
			<use xlink:href="#SVGID_11_"  style="overflow:visible;"/>
		</clipPath>
		<g class="st9">
			<path class="st8" d="M19.4,25.2h7.7v11.3h-7.7V25.2z"/>
		</g>
	</g>
	<g>
		<defs>
			<path id="SVGID_13_" d="M30.8,26.7c-0.1,0.6-0.1,1.3,0.1,1.9c0.2,0.5,0.5,1,0.9,1.3c0.2,0.2,0.3,0.1,0.4-0.1
				c0.4-0.9,0.3-1.8-0.1-2.7c-0.2-0.5-0.5-0.9-0.8-1.4c0.8,0.7,1.4,1.5,1.5,2.7c0.4-0.4,0.8-0.8,1.3-1l0.1,0.1
				c-0.2,0.2-0.5,0.4-0.7,0.6c-0.3,0.3-0.6,0.7-0.7,1.2c0,0.2-0.2,0.4-0.2,0.7c-0.1,0.3,0,0.4,0.3,0.3c0.9-0.2,1.6-0.7,2.1-1.5
				c0.3-0.4,0.5-0.9,0.6-1.4c0-0.1,0-0.2,0.1-0.2c0,1.5-1,3.4-2.9,3.5c-0.3,0-0.5-0.1-0.8-0.2c-1-0.7-1.3-1.7-1.2-2.9
				C30.6,27.2,30.7,26.9,30.8,26.7L30.8,26.7"/>
		</defs>
		<clipPath id="SVGID_14_">
			<use xlink:href="#SVGID_13_"  style="overflow:visible;"/>
		</clipPath>
		<g class="st10">
			<path class="st11" d="M30.3,25.4h5.6v5.4h-5.6V25.4z"/>
		</g>
	</g>
	<g>
		<defs>
			<path id="SVGID_15_" d="M34,27.5L34,27.5c0.2-0.3,0.6-0.4,0.9-0.4L34,27.5L34,27.5z"/>
		</defs>
		<clipPath id="SVGID_16_">
			<use xlink:href="#SVGID_15_"  style="overflow:visible;"/>
		</clipPath>
		<g class="st12">
			<path class="st11" d="M33.6,26.8h1.6v1.1h-1.6V26.8z"/>
		</g>
	</g>
	<g>
		<defs>
			<path id="SVGID_17_" d="M30.8,26.7L30.8,26.7c0-0.3,0-0.5,0.2-0.7L30.8,26.7L30.8,26.7z"/>
		</defs>
		<clipPath id="SVGID_18_">
			<use xlink:href="#SVGID_17_"  style="overflow:visible;"/>
		</clipPath>
		<g class="st13">
			<path class="st14" d="M30.4,25.7h0.9v1.4h-0.9V25.7z"/>
		</g>
	</g>
	<g>
		<defs>
			<path id="SVGID_19_" d="M10.6,28c0-0.1,0.1-0.2,0.1-0.3c0-0.1,0-0.1,0-0.1l0.2-0.3l0.4,0c1.5,0.2,2.3,0.9,2.5,1.9
				c0.1,0.4,0.1,0.8,0,1.1c0,0.1-0.1,0.3-0.1,0.4c0,0.1,0.1,0.3,0.1,0.4c0.1,0.4,0.1,0.8,0,1.1c-0.2,1-1,1.8-2.5,1.9l-0.4,0L10.8,34
				c0,0,0-0.1,0-0.1c0-0.1-0.1-0.2-0.1-0.3c-0.1-0.4-0.2-0.8-0.1-1.2c-0.5,0-1-0.3-1.5-0.7c-0.2-0.1-0.3-0.3-0.4-0.4
				c0-0.1-0.1-0.1-0.1-0.1c0,0,0-0.1,0-0.1l-0.2-0.3l0.2-0.3c0.6-0.8,1.3-1.2,2-1.2C10.5,28.8,10.5,28.4,10.6,28L10.6,28z"/>
		</defs>
		<clipPath id="SVGID_20_">
			<use xlink:href="#SVGID_19_"  style="overflow:visible;"/>
		</clipPath>
		<g class="st15">
			<path class="st0" d="M7.9,26.9h6.2v7.7H7.9V26.9z"/>
		</g>
	</g>
	<g>
		<defs>
			<path id="SVGID_21_" d="M11.2,29.9c-0.6-0.9,0-2.1,0-2.1c2.8,0.4,2,2.7,1.9,3c0.1,0.3,0.9,2.6-1.9,3c0,0-0.5-1.2,0-2.1
				c-1.4,0.6-2.4-0.9-2.4-0.9C9.7,29.7,10.6,29.6,11.2,29.9L11.2,29.9z"/>
		</defs>
		<clipPath id="SVGID_22_">
			<use xlink:href="#SVGID_21_"  style="overflow:visible;"/>
		</clipPath>
		<g class="st16">
			<path class="st5" d="M8.5,27.5h5.1v6.6H8.5V27.5z"/>
		</g>
	</g>
	<g>
		<defs>
			<path id="SVGID_23_" d="M53.3,28c0-0.1-0.1-0.2-0.1-0.3c0-0.1,0-0.1,0-0.1L53,27.3l-0.4,0c-1.5,0.2-2.3,0.9-2.5,1.9
				c-0.1,0.4-0.1,0.8,0,1.1c0,0.1,0.1,0.3,0.1,0.4c0,0.1-0.1,0.3-0.1,0.4c-0.1,0.4-0.1,0.8,0,1.1c0.2,1,1,1.8,2.5,1.9l0.4,0l0.2-0.3
				c0,0,0-0.1,0-0.1c0-0.1,0.1-0.2,0.1-0.3c0.1-0.4,0.2-0.8,0.1-1.2c0.5,0,1-0.3,1.5-0.7c0.2-0.1,0.3-0.3,0.4-0.4
				c0-0.1,0.1-0.1,0.1-0.1c0,0,0-0.1,0-0.1l0.2-0.3l-0.2-0.3c-0.6-0.8-1.3-1.2-2-1.2C53.4,28.8,53.4,28.4,53.3,28z"/>
		</defs>
		<clipPath id="SVGID_24_">
			<use xlink:href="#SVGID_23_"  style="overflow:visible;"/>
		</clipPath>
		<g class="st17">
			<path class="st0" d="M49.8,26.9H56v7.7h-6.2V26.9z"/>
		</g>
	</g>
	<g>
		<defs>
			<path id="SVGID_25_" d="M52.7,29.9c0.6-0.9,0-2.1,0-2.1c-2.8,0.4-2,2.7-1.9,3c-0.1,0.3-0.9,2.6,1.9,3c0,0,0.5-1.2,0-2.1
				c1.4,0.6,2.4-0.9,2.4-0.9C54.2,29.7,53.3,29.6,52.7,29.9L52.7,29.9z"/>
		</defs>
		<clipPath id="SVGID_26_">
			<use xlink:href="#SVGID_25_"  style="overflow:visible;"/>
		</clipPath>
		<g class="st18">
			<path class="st5" d="M50.3,27.5h5.1v6.6h-5.1V27.5z"/>
		</g>
	</g>
	<g>
		<defs>
			<rect id="SVGID_27_" x="12.9" y="23" width="37.8" height="0.8"/>
		</defs>
		<clipPath id="SVGID_28_">
			<use xlink:href="#SVGID_27_"  style="overflow:visible;"/>
		</clipPath>
		<g class="st19">
			<path class="st0" d="M12.6,22.7H51v1.4H12.6V22.7z"/>
		</g>
	</g>
	<g>
		<defs>
			<rect id="SVGID_29_" x="12.9" y="37.8" width="37.8" height="0.8"/>
		</defs>
		<clipPath id="SVGID_30_">
			<use xlink:href="#SVGID_29_"  style="overflow:visible;"/>
		</clipPath>
		<g class="st20">
			<path class="st0" d="M12.6,37.5H51v1.4H12.6V37.5z"/>
		</g>
	</g>
	<g>
		<defs>
			<path id="SVGID_31_" d="M24.8,45.4v-4.1h-1.4v-1h3.9v1H26v4.1H24.8z M28.9,45.5c-1,0-1.9-0.7-1.9-2c0-1.3,0.9-2,1.9-2
				c1,0,1.9,0.7,1.9,2C30.7,44.8,29.8,45.5,28.9,45.5z M28.9,44.6c0.5,0,0.7-0.4,0.7-1.1s-0.2-1.1-0.7-1.1c-0.5,0-0.7,0.4-0.7,1.1
				S28.4,44.6,28.9,44.6z M34.8,45.5c0.7,0,1.3-0.3,1.7-0.6v-2.3h-1.8v0.9h0.8v0.9c-0.1,0.1-0.3,0.2-0.5,0.2c-0.9,0-1.4-0.6-1.4-1.6
				c0-1,0.5-1.6,1.3-1.6c0.4,0,0.7,0.2,1,0.4l0.6-0.7c-0.4-0.4-1-0.7-1.6-0.7c-1.3,0-2.5,1-2.5,2.6C32.3,44.6,33.4,45.5,34.8,45.5
				L34.8,45.5z M38.8,45.5c-1,0-1.9-0.7-1.9-2c0-1.3,0.9-2,1.9-2c1,0,1.9,0.7,1.9,2C40.7,44.8,39.8,45.5,38.8,45.5L38.8,45.5z
				 M38.8,44.6c0.5,0,0.7-0.4,0.7-1.1s-0.2-1.1-0.7-1.1c-0.5,0-0.7,0.4-0.7,1.1S38.3,44.6,38.8,44.6L38.8,44.6z"/>
		</defs>
		<clipPath id="SVGID_32_">
			<use xlink:href="#SVGID_31_"  style="overflow:visible;"/>
		</clipPath>
		<g class="st21">
			<path class="st0" d="M23.1,40H41v5.9H23.1V40z"/>
		</g>
	</g>
</g>
</svg>
