<?xml version="1.0" encoding="utf-8"?>
<!-- Generator: Adobe Illustrator 22.0.1, SVG Export Plug-In . SVG Version: 6.00 Build 0)  -->
<svg version="1.1" id="Layer_1" xmlns="http://www.w3.org/2000/svg" xmlns:xlink="http://www.w3.org/1999/xlink" x="0px" y="0px"
	 viewBox="0 0 176.9 60.8" style="enable-background:new 0 0 176.9 60.8;" xml:space="preserve">
<style type="text/css">
	.st0{fill:#FFFFFF;}
	.st1{fill:#00CCBC;}
</style>
<path class="st0" d="M165.9,60.8H11c-6.1,0-11-5-11-11V11C0,4.9,4.9,0,11,0h154.9c6.1,0,11,4.9,11,11v38.8
	C176.9,55.8,172,60.8,165.9,60.8z"/>
<path class="st1" d="M66.6,40.9h3.6l-0.6-2.8V21.6h-3.4v7.5c-1-1.2-2.5-1.9-4.1-1.9c-3.4,0-6,2.8-6,6.9c0,4.1,2.6,6.9,6,6.9
	c1.7,0,3.2-0.7,4.2-2L66.6,40.9L66.6,40.9z M133.9,31c0.7,0,1.3,0.2,1.9,0.6l1.6-3.6c-0.8-0.5-1.6-0.7-2.5-0.7c-1.5,0-2.8,0.7-3.6,2
	l-0.4-1.7h-3.5l0.6,2.6v10.7h3.4v-8.5C131.9,31.5,132.8,31,133.9,31L133.9,31L133.9,31L133.9,31z M143.9,37.6c-2,0-3.4-1.3-3.4-3.3
	c0-2.1,1.5-3.3,3.4-3.3c2,0,3.4,1.3,3.4,3.3C147.3,36.3,145.9,37.6,143.9,37.6L143.9,37.6z M59.3,34.2c0-2.1,1.5-3.3,3.4-3.3
	c2,0,3.4,1.3,3.4,3.3c0,2-1.4,3.3-3.4,3.3C60.7,37.6,59.3,36.3,59.3,34.2z M159,37.6c-2,0-3.4-1.3-3.4-3.3c0-2.1,1.5-3.3,3.4-3.3
	c2,0,3.4,1.3,3.4,3.3C162.4,36.3,161,37.6,159,37.6z M78.4,30.7c1.8,0,2.9,0.8,3.3,2.4h-6.6C75.5,31.5,76.7,30.7,78.4,30.7
	L78.4,30.7z M119.1,30.7c1.8,0,2.9,0.8,3.3,2.4h-6.6C116.3,31.5,117.4,30.7,119.1,30.7L119.1,30.7z M102.5,40.9h5.5l3.6-13.3h-3.7
	l-2.6,10.8l-2.6-10.8H99L102.5,40.9L102.5,40.9z M93.7,40.9h3.4V27.5h-3.4V40.9z M78.9,41.1c1.9,0,3.8-0.5,5.3-1.5l-1.3-2.9
	c-1.2,0.7-2.6,1-4,1c-1.8,0-3-0.7-3.6-2H85c0.1-0.5,0.2-1,0.2-1.6c0-4.1-2.9-6.9-6.7-6.9c-3.9,0-6.7,2.8-6.7,6.9
	C71.8,38.4,74.6,41.1,78.9,41.1L78.9,41.1z M165.7,34.2c0-4.1-2.9-6.9-6.7-6.9c-3.9,0-6.7,2.8-6.7,6.9s2.9,6.9,6.7,6.9
	C162.9,41.2,165.7,38.4,165.7,34.2L165.7,34.2z M119.6,41.2c1.9,0,3.8-0.5,5.3-1.5l-1.3-2.9c-1.2,0.7-2.6,1-4,1c-1.8,0-3-0.7-3.6-2
	h9.6c0.1-0.5,0.2-1,0.2-1.6c0-4.1-2.9-6.9-6.7-6.9c-3.9,0-6.7,2.8-6.7,6.9C112.5,38.5,115.3,41.2,119.6,41.2L119.6,41.2L119.6,41.2z
	 M143.9,41.2c3.9,0,6.7-2.8,6.7-6.9s-2.9-6.9-6.7-6.9c-3.9,0-6.7,2.8-6.7,6.9S140,41.2,143.9,41.2L143.9,41.2z M87.3,40.9h3.4V21.6
	h-3.4V40.9L87.3,40.9z M95.5,25.7c1.2,0,2.1-1,2.1-2.2s-0.9-2.2-2.1-2.2s-2.2,1-2.2,2.2S94.2,25.7,95.5,25.7L95.5,25.7z M36.9,9.5
	L35,28l-3.3-15.6l-10.4,2.2l3.3,15.6l-15,3.2l2.7,12.4l26.5,5.6l6-13.5l2.9-27.2L36.9,9.5L36.9,9.5L36.9,9.5z M28.6,36.3
	c-0.5,0.5-1.2,0.4-2,0.2c-0.8-0.3-1.1-1.1-0.8-2.3c0.2-0.8,1.2-1,1.8-1c0.2,0,0.4,0,0.6,0.1c0.4,0.2,1,0.5,1.1,1
	C29.3,35.2,29.1,35.8,28.6,36.3L28.6,36.3L28.6,36.3L28.6,36.3z M36.2,37.2c-0.4,0.7-1.4,0.8-2.5,0.3c-0.7-0.4-0.7-1.2-0.6-1.7
	c0-0.3,0.2-0.6,0.4-0.8c0.3-0.3,0.7-0.7,1.1-0.7c0.8,0,1.4,0.3,1.8,1C36.8,35.8,36.6,36.5,36.2,37.2L36.2,37.2L36.2,37.2z"/>
</svg>
