<?xml version="1.0" encoding="utf-8"?>
<!-- Generator: Adobe Illustrator 22.0.1, SVG Export Plug-In . SVG Version: 6.00 Build 0)  -->
<svg version="1.1" id="Layer_1" xmlns="http://www.w3.org/2000/svg" xmlns:xlink="http://www.w3.org/1999/xlink" x="0px" y="0px"
	 viewBox="0 0 77 77.4" style="enable-background:new 0 0 77 77.4;" xml:space="preserve">
<style type="text/css">
	.st0{fill:none;stroke:#C7D300;stroke-width:4;stroke-miterlimit:10;}
	.st1{fill:none;stroke:#000000;stroke-width:4;stroke-miterlimit:10;}
</style>
<g>
	<g>
		<g>
			<path class="st0" d="M61.1,39.5c0-0.1,0-0.3,0-0.4c0-2.3-1.9-4.2-4.2-4.2c-2.1,0-3.8,1.5-4.1,3.5c-6.8,0.6-12.6,4.9-15.3,10.8
				l0,0c-2.2-4.9-6.6-8.7-11.8-10.2c-0.1-2.3-1.9-4.1-4.2-4.1c-2.2,0-3.9,1.6-4.2,3.7C8.6,40.1,2,47.7,2,56.8
				c0,10.3,8.3,18.6,18.6,18.6c7.5,0,14-4.5,16.9-10.9l0,0c2.9,6.4,9.4,10.9,16.9,10.9c10.3,0,18.6-8.3,18.6-18.6
				C73,48.9,68.1,42.2,61.1,39.5z"/>
			<path class="st0" d="M32.4,16.3c5.1,6.5,25.4,7.8,25.4,18.6"/>
			<path class="st0" d="M22.3,34.9c0,0,4.6-21.1,22-30.2"/>
			<path class="st0" d="M36.8,8.4c0,0-4.4-3.8-11.3-1.3"/>
			<path class="st0" d="M30.9,7c0,0-7.6,13-22.8,6.5C8.1,13.5,20.5-7.2,30.9,7z"/>
			<path class="st0" d="M8.8,53.4c0,0-2.5,5.5,3.4,13.5"/>
			<path class="st0" d="M42.6,53.4c0,0-2.5,4.8,3.4,11.8"/>
		</g>
	</g>
	<g>
		<g>
			<path class="st1" d="M63.1,39.5c0-0.1,0-0.3,0-0.4c0-2.3-1.9-4.2-4.2-4.2c-2.1,0-3.8,1.5-4.1,3.5c-6.8,0.6-12.6,4.9-15.3,10.8
				l0,0c-2.2-4.9-6.6-8.7-11.8-10.2c-0.1-2.3-1.9-4.1-4.2-4.1c-2.2,0-3.9,1.6-4.2,3.7C10.6,40.1,4,47.7,4,56.8
				c0,10.3,8.3,18.6,18.6,18.6c7.5,0,14-4.5,16.9-10.9l0,0c2.9,6.4,9.4,10.9,16.9,10.9c10.3,0,18.6-8.3,18.6-18.6
				C75,48.9,70.1,42.2,63.1,39.5z"/>
			<path class="st1" d="M34.4,16.3c5.1,6.5,25.4,7.8,25.4,18.6"/>
			<path class="st1" d="M24.3,34.9c0,0,4.6-21.1,22-30.2"/>
			<path class="st1" d="M38.8,8.4c0,0-4.4-3.8-11.3-1.3"/>
			<path class="st1" d="M32.9,7c0,0-7.6,13-22.8,6.5C10.1,13.5,22.5-7.2,32.9,7z"/>
			<path class="st1" d="M10.8,53.4c0,0-2.5,5.5,3.4,13.5"/>
			<path class="st1" d="M44.6,53.4c0,0-2.5,4.8,3.4,11.8"/>
		</g>
	</g>
</g>
</svg>
