<?xml version="1.0" standalone="no"?>
<!DOCTYPE svg PUBLIC "-//W3C//DTD SVG 20010904//EN"
 "http://www.w3.org/TR/2001/REC-SVG-20010904/DTD/svg10.dtd">
<svg version="1.0" xmlns="http://www.w3.org/2000/svg"
 width="700.000000pt" height="700.000000pt" viewBox="0 0 700.000000 700.000000"
 preserveAspectRatio="xMidYMid meet">
<metadata>
Created by potrace 1.11, written by Peter Selinger 2001-2013
</metadata>
<g transform="translate(0.000000,700.000000) scale(0.100000,-0.100000)"
fill="#000000" stroke="none">
<path d="M1978 6994 c-2 -1 -28 -5 -58 -9 -189 -23 -462 -161 -675 -338 -87
-72 -320 -309 -391 -397 -131 -163 -384 -531 -384 -560 0 -5 6 -10 13 -10 7 0
69 -23 137 -50 283 -115 466 -164 683 -187 94 -9 440 -10 539 0 132 12 337 64
442 111 28 12 67 29 86 36 19 7 47 22 62 32 14 10 29 18 32 18 9 0 183 109
198 124 7 7 20 17 29 22 61 34 260 228 341 331 28 35 51 63 53 63 2 0 16 -5
30 -12 l25 -11 -68 -67 c-37 -36 -101 -104 -142 -151 -41 -46 -78 -86 -81 -89
-15 -13 -163 -206 -226 -295 -296 -416 -563 -959 -705 -1431 l-30 -102 -61
-13 c-160 -34 -327 -171 -386 -316 -8 -18 -19 -33 -27 -33 -31 0 -260 -82
-351 -125 -309 -149 -576 -382 -763 -665 -148 -225 -249 -502 -287 -790 -9
-71 -9 -357 1 -435 32 -263 128 -535 266 -760 141 -230 374 -463 605 -605 200
-123 478 -227 685 -255 30 -5 66 -10 80 -13 50 -9 547 -10 610 -1 36 5 83 12
105 15 22 3 83 16 135 29 371 93 710 298 957 578 l41 48 44 -48 c235 -256 491
-425 808 -534 224 -77 379 -98 715 -94 149 1 295 7 325 13 30 6 71 13 90 16
19 3 50 10 68 15 18 5 36 10 40 11 115 14 419 146 567 245 160 108 315 247
416 374 33 42 68 85 77 96 25 30 134 213 164 275 26 52 106 258 113 290 2 8
13 53 24 100 11 47 23 103 26 125 2 22 7 51 10 65 10 41 13 375 4 427 -4 26
-10 69 -13 94 -6 62 -50 236 -83 329 -136 388 -418 737 -773 956 -52 33 -120
71 -150 86 -51 24 -56 30 -68 75 -38 134 -141 277 -247 338 -42 25 -43 28 -64
117 -61 263 -253 497 -566 691 -107 67 -390 209 -530 267 -55 22 -109 45 -120
50 -11 5 -99 41 -195 81 -292 118 -409 170 -538 235 -136 69 -272 156 -314
201 l-27 28 32 39 c41 51 257 269 322 327 106 92 123 106 215 175 134 99 303
207 397 253 l31 16 -50 90 c-27 50 -66 119 -85 155 -20 36 -37 67 -39 69 -2 2
-33 -13 -70 -34 l-68 -37 -18 24 c-9 13 -18 29 -18 36 0 9 -7 11 -21 7 -33
-11 -184 -100 -307 -181 l-112 -75 -53 25 c-123 58 -255 97 -377 112 -50 6
-59 12 -118 70 -114 113 -256 210 -385 260 -119 47 -180 56 -394 59 -112 1
-204 1 -205 -1z m267 -391 c27 -9 62 -24 77 -33 l27 -16 -44 -12 -45 -12 15
-37 c7 -21 28 -85 45 -143 48 -159 50 -161 85 -155 28 5 27 3 -25 -45 -84 -78
-210 -163 -326 -220 -79 -39 -243 -97 -294 -105 -14 -2 -50 -8 -80 -14 -83
-14 -222 -5 -345 24 -60 14 -113 25 -117 25 -51 0 244 342 429 498 147 124
273 198 413 242 90 29 105 29 185 3z m873 -1452 c53 -32 147 -83 207 -113 133
-67 226 -107 675 -291 271 -112 370 -157 515 -235 264 -142 425 -281 500 -430
28 -57 27 -82 -3 -82 -40 0 -167 -74 -222 -129 -67 -68 -84 -89 -109 -139 -19
-38 -22 -39 -107 -56 -366 -73 -695 -253 -972 -534 l-102 -103 -113 114 c-120
123 -234 214 -369 295 -84 51 -238 127 -310 153 -23 8 -38 19 -38 30 0 9 -16
47 -35 85 -34 69 -108 157 -174 206 l-34 26 22 79 c28 92 130 367 173 462 16
36 37 82 45 101 23 51 126 258 155 310 83 150 181 309 191 310 4 0 51 -26 105
-59z m-1048 -1528 c35 -20 76 -94 83 -148 3 -22 9 -63 12 -90 l7 -50 131 -43
c347 -112 633 -324 826 -610 37 -55 185 -342 250 -484 12 -27 25 -48 29 -48 4
1 26 40 48 88 l42 87 43 -87 c24 -49 46 -88 49 -88 3 0 38 66 78 148 128 258
176 345 237 427 32 44 64 85 69 91 6 6 27 29 47 50 244 263 559 425 924 474
118 15 149 19 166 20 13 0 22 23 39 93 24 99 33 117 74 159 31 30 47 28 88
-10 41 -38 58 -95 61 -201 l2 -93 130 -57 c159 -70 191 -87 281 -148 107 -72
151 -108 245 -204 114 -117 200 -239 269 -384 112 -233 152 -404 152 -655 0
-689 -470 -1285 -1147 -1453 -173 -44 -364 -44 -530 -3 -266 67 -504 199 -695
386 -159 156 -226 254 -366 538 -137 275 -118 258 -167 157 -22 -47 -44 -85
-48 -85 -4 0 -11 10 -16 23 -4 12 -23 51 -41 86 l-33 63 -117 -234 c-149 -297
-207 -385 -356 -534 -303 -301 -747 -473 -1102 -424 -98 13 -103 14 -254 62
-609 191 -1029 767 -1032 1414 0 72 2 144 6 160 3 16 8 50 11 75 12 111 73
304 138 434 27 56 132 224 146 235 3 3 18 21 32 40 37 50 134 147 207 208 192
159 397 256 671 316 l145 31 17 70 c9 39 20 83 23 98 6 24 80 117 93 117 3 0
18 -8 33 -17z"/>
<path d="M3686 2193 c-111 -337 5 -763 311 -1150 l41 -53 57 45 58 44 34 -45
35 -45 41 34 c23 18 86 68 140 111 53 43 97 80 97 83 0 2 -19 30 -43 61 -136
179 -214 330 -251 489 -18 79 -18 222 0 281 7 26 12 48 10 49 -2 2 -75 35
-162 74 -146 64 -160 69 -171 53 -7 -10 -13 -24 -13 -31 0 -18 -9 -17 -88 17
-39 17 -73 30 -76 30 -2 0 -11 -21 -20 -47z"/>
<path d="M620 2210 c-6 -11 -8 -20 -6 -20 3 0 1 -12 -5 -27 -24 -63 -38 -192
-34 -325 2 -75 5 -141 8 -145 3 -5 8 -27 12 -51 28 -193 143 -463 288 -682 38
-58 71 -107 74 -109 2 -3 30 14 64 38 l60 42 19 -23 c11 -13 22 -31 25 -40 10
-28 -9 -39 222 120 l92 63 -71 107 c-156 240 -245 484 -251 697 -2 70 11 181
28 235 4 14 -4 21 -37 33 -24 8 -97 36 -163 61 -66 26 -126 44 -132 41 -7 -2
-13 -14 -13 -25 0 -26 -13 -25 -90 5 -77 30 -77 30 -90 5z"/>
</g>
</svg>
